<?xml version="1.0" encoding="utf-8"?>
<!-- Generator: Adobe Illustrator 23.1.0, SVG Export Plug-In . SVG Version: 6.00 Build 0)  -->
<svg version="1.1" id="Layer_1" xmlns:sketch="http://www.bohemiancoding.com/sketch/ns"
	 xmlns="http://www.w3.org/2000/svg" xmlns:xlink="http://www.w3.org/1999/xlink" x="0px" y="0px" viewBox="0 0 50 50"
	 style="enable-background:new 0 0 50 50;" xml:space="preserve">
<style type="text/css">
	.st0{fill-rule:evenodd;clip-rule:evenodd;fill:#FFFFFF;}
</style>
<title></title>
<g id="Page-1">
	<g id="Intsagram">
		<path id="Oval-1" class="st0" d="M25,0C11.2,0,0,11.2,0,25s11.2,25,25,25s25-11.2,25-25S38.8,0,25,0z M25,3C12.8,3,3,12.8,3,25
			s9.8,22,22,22s22-9.8,22-22S37.2,3,25,3z M36,34.5c0-0.1,0-0.2,0-0.3V15.8c0-0.1,0-0.2,0-0.3c-0.2-1-1-1.8-2-2c0,0-0.1,0-0.1,0
			H16.2c-0.1,0-0.2,0-0.3,0.1c-1,0.2-1.7,1.1-1.8,2.1c0,0,0,0.1,0,0.1v18.5c0,0.1,0,0.2,0.1,0.4c0.2,1,1,1.8,2,1.9c0,0,0.1,0,0.1,0
			h17.6c0.1,0,0.2,0,0.3-0.1C35,36.2,35.8,35.5,36,34.5z M16.4,33.1c0,0.5,0.4,0.9,0.9,0.9c5.2,0,10.3,0,15.5,0
			c0.5,0,0.9-0.4,0.9-0.9c0-3.4,0-6.8,0-10.2v-0.1h-2.1c0.3,1,0.4,2,0.3,3c-0.1,1-0.4,2-0.9,2.9c-0.5,0.9-1.2,1.6-2,2.2
			c-2.1,1.5-4.9,1.6-7.2,0.3c-1.1-0.7-2-1.6-2.7-2.8c-0.9-1.8-1.1-3.7-0.5-5.6c-0.7,0-1.4,0-2.1,0v0.1
			C16.4,26.3,16.4,29.7,16.4,33.1z M24.9,29.7c2.5,0.1,4.5-2,4.6-4.6c0.1-2.6-2-4.8-4.5-4.8c-2.4,0-4.4,2.1-4.5,4.6
			C20.5,27.5,22.5,29.6,24.9,29.7z M33.6,18.5c0-0.7,0-1.5,0-2.2c0-0.5-0.4-0.9-0.9-0.9c-0.7,0-1.4,0-2.1,0c-0.5,0-0.9,0.4-0.9,0.9
			c0,0.7,0,1.4,0,2.2c0,0.1,0,0.2,0.1,0.3c0.1,0.4,0.5,0.6,0.9,0.6c0.3,0,0.7,0,1,0c0.4,0,0.7,0,1.1,0C33.2,19.4,33.6,19,33.6,18.5z
			"/>
	</g>
</g>
</svg>
